<mxfile host="app.diagrams.net" modified="2024-02-03T05:03:28.657Z" agent="Mozilla/5.0 (Macintosh; Intel Mac OS X 10_15_7) AppleWebKit/605.1.15 (KHTML, like Gecko) Version/17.2.1 Safari/605.1.15" etag="nOpKQ9XkpUW_RguwQlCW" version="23.1.0" type="device">
  <diagram name="Page-1" id="gAcxV7oKzw25ISyMUthn">
    <mxGraphModel dx="2190" dy="924" grid="1" gridSize="10" guides="1" tooltips="1" connect="1" arrows="1" fold="1" page="1" pageScale="1" pageWidth="827" pageHeight="1169" math="0" shadow="0">
      <root>
        <mxCell id="0" />
        <mxCell id="1" parent="0" />
        <mxCell id="84wMef6aCRvd4BvL-2E1-17" style="edgeStyle=orthogonalEdgeStyle;rounded=0;orthogonalLoop=1;jettySize=auto;html=1;entryX=0;entryY=0.5;entryDx=0;entryDy=0;" edge="1" parent="1" source="84wMef6aCRvd4BvL-2E1-1" target="84wMef6aCRvd4BvL-2E1-2">
          <mxGeometry relative="1" as="geometry" />
        </mxCell>
        <mxCell id="84wMef6aCRvd4BvL-2E1-18" style="edgeStyle=orthogonalEdgeStyle;rounded=0;orthogonalLoop=1;jettySize=auto;html=1;entryX=0;entryY=0.5;entryDx=0;entryDy=0;" edge="1" parent="1" source="84wMef6aCRvd4BvL-2E1-1" target="84wMef6aCRvd4BvL-2E1-3">
          <mxGeometry relative="1" as="geometry" />
        </mxCell>
        <mxCell id="84wMef6aCRvd4BvL-2E1-19" style="edgeStyle=orthogonalEdgeStyle;rounded=0;orthogonalLoop=1;jettySize=auto;html=1;entryX=0;entryY=0.5;entryDx=0;entryDy=0;" edge="1" parent="1" source="84wMef6aCRvd4BvL-2E1-1" target="84wMef6aCRvd4BvL-2E1-4">
          <mxGeometry relative="1" as="geometry" />
        </mxCell>
        <mxCell id="84wMef6aCRvd4BvL-2E1-20" style="edgeStyle=orthogonalEdgeStyle;rounded=0;orthogonalLoop=1;jettySize=auto;html=1;entryX=0;entryY=0.5;entryDx=0;entryDy=0;" edge="1" parent="1" source="84wMef6aCRvd4BvL-2E1-1" target="84wMef6aCRvd4BvL-2E1-5">
          <mxGeometry relative="1" as="geometry" />
        </mxCell>
        <mxCell id="84wMef6aCRvd4BvL-2E1-21" style="edgeStyle=orthogonalEdgeStyle;rounded=0;orthogonalLoop=1;jettySize=auto;html=1;entryX=0;entryY=0.5;entryDx=0;entryDy=0;" edge="1" parent="1" source="84wMef6aCRvd4BvL-2E1-1" target="84wMef6aCRvd4BvL-2E1-12">
          <mxGeometry relative="1" as="geometry" />
        </mxCell>
        <mxCell id="84wMef6aCRvd4BvL-2E1-22" style="edgeStyle=orthogonalEdgeStyle;rounded=0;orthogonalLoop=1;jettySize=auto;html=1;entryX=0;entryY=0.5;entryDx=0;entryDy=0;" edge="1" parent="1" source="84wMef6aCRvd4BvL-2E1-1" target="84wMef6aCRvd4BvL-2E1-13">
          <mxGeometry relative="1" as="geometry" />
        </mxCell>
        <mxCell id="84wMef6aCRvd4BvL-2E1-23" style="edgeStyle=orthogonalEdgeStyle;rounded=0;orthogonalLoop=1;jettySize=auto;html=1;entryX=0;entryY=0.5;entryDx=0;entryDy=0;" edge="1" parent="1" source="84wMef6aCRvd4BvL-2E1-1" target="84wMef6aCRvd4BvL-2E1-14">
          <mxGeometry relative="1" as="geometry" />
        </mxCell>
        <mxCell id="84wMef6aCRvd4BvL-2E1-24" style="edgeStyle=orthogonalEdgeStyle;rounded=0;orthogonalLoop=1;jettySize=auto;html=1;entryX=0;entryY=0.5;entryDx=0;entryDy=0;" edge="1" parent="1" source="84wMef6aCRvd4BvL-2E1-1" target="84wMef6aCRvd4BvL-2E1-15">
          <mxGeometry relative="1" as="geometry" />
        </mxCell>
        <mxCell id="84wMef6aCRvd4BvL-2E1-25" style="edgeStyle=orthogonalEdgeStyle;rounded=0;orthogonalLoop=1;jettySize=auto;html=1;entryX=0;entryY=0.5;entryDx=0;entryDy=0;" edge="1" parent="1" source="84wMef6aCRvd4BvL-2E1-1" target="84wMef6aCRvd4BvL-2E1-16">
          <mxGeometry relative="1" as="geometry" />
        </mxCell>
        <mxCell id="84wMef6aCRvd4BvL-2E1-1" value="Patients" style="rounded=0;whiteSpace=wrap;html=1;" vertex="1" parent="1">
          <mxGeometry x="-750" y="560" width="120" height="60" as="geometry" />
        </mxCell>
        <mxCell id="84wMef6aCRvd4BvL-2E1-2" value="Home" style="ellipse;whiteSpace=wrap;html=1;" vertex="1" parent="1">
          <mxGeometry x="-380" y="90" width="120" height="80" as="geometry" />
        </mxCell>
        <mxCell id="84wMef6aCRvd4BvL-2E1-3" value="Patient registration" style="ellipse;whiteSpace=wrap;html=1;" vertex="1" parent="1">
          <mxGeometry x="-380" y="210" width="120" height="80" as="geometry" />
        </mxCell>
        <mxCell id="84wMef6aCRvd4BvL-2E1-4" value="Appointment" style="ellipse;whiteSpace=wrap;html=1;" vertex="1" parent="1">
          <mxGeometry x="-380" y="330" width="120" height="80" as="geometry" />
        </mxCell>
        <mxCell id="84wMef6aCRvd4BvL-2E1-5" value="About" style="ellipse;whiteSpace=wrap;html=1;" vertex="1" parent="1">
          <mxGeometry x="-380" y="440" width="120" height="80" as="geometry" />
        </mxCell>
        <mxCell id="84wMef6aCRvd4BvL-2E1-12" value="Departments" style="ellipse;whiteSpace=wrap;html=1;" vertex="1" parent="1">
          <mxGeometry x="-380" y="550" width="120" height="80" as="geometry" />
        </mxCell>
        <mxCell id="84wMef6aCRvd4BvL-2E1-13" value="Donation" style="ellipse;whiteSpace=wrap;html=1;" vertex="1" parent="1">
          <mxGeometry x="-380" y="680" width="120" height="80" as="geometry" />
        </mxCell>
        <mxCell id="84wMef6aCRvd4BvL-2E1-14" value="Services" style="ellipse;whiteSpace=wrap;html=1;" vertex="1" parent="1">
          <mxGeometry x="-380" y="810" width="120" height="80" as="geometry" />
        </mxCell>
        <mxCell id="84wMef6aCRvd4BvL-2E1-15" value="Pharmacy" style="ellipse;whiteSpace=wrap;html=1;" vertex="1" parent="1">
          <mxGeometry x="-380" y="940" width="120" height="80" as="geometry" />
        </mxCell>
        <mxCell id="84wMef6aCRvd4BvL-2E1-16" value="Reports" style="ellipse;whiteSpace=wrap;html=1;" vertex="1" parent="1">
          <mxGeometry x="-380" y="1060" width="120" height="80" as="geometry" />
        </mxCell>
      </root>
    </mxGraphModel>
  </diagram>
</mxfile>
